#!OML:ASF F:\VICON\USERDATA\INSTALL\rory3\rory3.ASF
:FULLY-SPECIFIED
:DEGREES
97
root 0.0984195 18.1871 -11.8173 -2.92017 -1.56154 -5.70341
lowerback 10.7461 -0.317404 2.14629
upperback 0.263971 0.013175 2.87683
thorax -5.76058 -0.0130951 1.80428
lowerneck -15.8646 -3.27793 -1.85185
upperneck 26.1635 -3.87569 -1.02487
head 11.1085 -2.07962 -0.607036
rclavicle -3.16813e-015 1.35174e-014
rhumerus -29.6929 -14.2442 -79.9959
rradius 27.665
rwrist 1.06296
rhand -17.8595 22.3284
rfingers 7.12502
rthumb 8.40591 -7.48437
lclavicle -3.16813e-015 1.35174e-014
lhumerus -32.72 -1.47537 86.6184
lradius 31.6826
lwrist 6.94379
lhand -34.3267 23.4652
lfingers 7.12502
lthumb -7.49488 53.3124
rfemur -8.42915 6.00751 32.6598
rtibia 28.3686
rfoot -13.9354 -6.98229
rtoes 5.94875
lfemur -21.2572 2.45154 -13.2925
ltibia 66.9909
lfoot -3.87162 -3.43492
ltoes 1.40593
98
root 0.102587 18.156 -11.6629 -2.883 -1.66588 -5.81052
lowerback 10.9073 -0.270223 2.34487
upperback 0.335682 0.106338 2.9038
thorax -5.77689 0.0276555 1.7069
lowerneck -16.1807 -3.3009 -1.92819
upperneck 26.0813 -3.86388 -1.07019
head 11.1411 -2.08611 -0.614139
rclavicle 1.98785e-015 4.4329e-014
rhumerus -29.1208 -13.2708 -80.4934
rradius 28.4166
rwrist 0.61114
rhand -18.0829 15.265
rfingers 7.12502
rthumb 8.19036 -14.5562
lclavicle 1.98785e-015 4.4329e-014
lhumerus -32.826 -1.07589 86.4965
lradius 31.4307
lwrist 6.96525
lhand -33.581 21.4043
lfingers 7.12502
lthumb -6.77507 51.2759
rfemur -8.04342 5.97397 32.8307
rtibia 28.6721
rfoot -14.4829 -7.00698
rtoes 5.75461
lfemur -22.2593 2.26019 -13.2195
ltibia 66.3675
lfoot -4.99628 -3.12754
ltoes 0.166819
99
root 0.103186 18.1163 -11.5067 -2.7828 -1.77355 -5.99093
lowerback 10.9218 -0.208261 2.62299
upperback 0.33281 0.224191 2.90198
thorax -5.78877 0.0778938 1.52989
lowerneck -16.1022 -3.3035 -1.89537
upperneck 25.9099 -3.85181 -1.15891
head 11.0582 -2.08847 -0.645594
rclavicle -2.08724e-015 3.37934e-015
rhumerus -28.6543 -12.5986 -80.9025
rradius 29.0772
rwrist 0.251168
rhand -19.2008 17.5011
rfingers 7.12502
rthumb 7.11132 -12.3594
lclavicle -2.08724e-015 3.37934e-015
lhumerus -33.012 -0.985409 86.3938
lradius 31.2677
lwrist 7.0262
lhand -32.2037 23.323
lfingers 7.12502
lthumb -5.44542 53.2331
rfemur -7.74221 6.03898 33.1082
rtibia 29.0126
rfoot -14.9529 -7.27656
rtoes 4.49489
lfemur -23.2592 2.12164 -13.04
ltibia 65.6876
lfoot -6.06199 -2.68479
ltoes -1.57604
100
root 0.103502 18.0881 -11.3497 -2.58151 -1.84971 -6.15585
lowerback 10.7585 -0.115511 2.89944
upperback 0.307312 0.374504 2.89362
thorax -5.72345 0.144474 1.34108
lowerneck -15.9458 -3.35302 -1.9529
upperneck 25.7481 -3.91975 -1.117
head 10.9694 -2.11978 -0.624521
rclavicle -2.17421e-015 2.28602e-014
rhumerus -28.2873 -12.3228 -80.9988
rradius 29.1411
rwrist 0.332789
rhand -19.7042 22.3747
rfingers 7.12502
rthumb 6.62534 -7.50163
lclavicle -2.17421e-015 2.28602e-014
lhumerus -33.2548 -0.861679 86.2962
lradius 31.0905
lwrist 6.90746
lhand -31.0704 24.2287
lfingers 7.12502
lthumb -4.35116 54.164
rfemur -7.53782 6.08193 33.3539
rtibia 29.3078
rfoot -15.5388 -7.61484
rtoes 4.25549
lfemur -24.248 1.98525 -12.8927
ltibia 64.778
lfoot -6.83428 -2.03488
ltoes -2.58208
101
root 0.106023 18.0726 -11.1944 -2.51417 -1.97975 -6.18391
lowerback 10.8947 -0.0381657 3.02012
upperback 0.299776 0.497436 2.85745
thorax -5.80697 0.200404 1.21663
lowerneck -15.9097 -3.31369 -1.95396
upperneck 25.5769 -3.88117 -1.05058
head 10.8997 -2.09383 -0.591492
rclavicle 9.62863e-015 -7.35503e-015
rhumerus -27.7669 -12.0441 -81.1186
rradius 28.9732
rwrist 0.571443
rhand -19.7737 24.54
rfingers 7.12502
rthumb 6.55826 -5.33843
lclavicle 9.62863e-015 -7.35503e-015
lhumerus -33.4263 -0.528548 86.1099
lradius 30.7556
lwrist 6.73505
lhand -31.2563 22.4019
lfingers 7.12502
lthumb -4.53061 52.3334
rfemur -7.1303 6.05868 33.444
rtibia 29.4501
rfoot -16.0194 -7.841
rtoes 3.72365
lfemur -25.0157 1.87575 -12.9019
ltibia 63.5157
lfoot -7.29432 -1.42301
ltoes -2.20468
102
root 0.108997 18.0612 -11.029 -2.52247 -2.21434 -6.38076
lowerback 11.0411 0.0732273 3.33902
upperback 0.327367 0.691274 2.84349
thorax -5.85644 0.286194 0.99205
lowerneck -15.8865 -3.29829 -1.88181
upperneck 25.4103 -3.88001 -1.04435
head 10.8313 -2.08527 -0.598003
rclavicle -9.5106e-015 -3.58806e-014
rhumerus -27.3629 -11.7505 -81.2611
rradius 29.2329
rwrist 0.273718
rhand -19.2166 25.4526
rfingers 7.12502
rthumb 7.09606 -4.40843
lclavicle -9.5106e-015 -3.58806e-014
lhumerus -33.4046 -0.169193 85.8866
lradius 30.165
lwrist 6.41599
lhand -31.6589 21.2826
lfingers 7.12502
lthumb -4.91938 51.2055
rfemur -6.46415 6.00736 33.7025
rtibia 29.4144
rfoot -16.4173 -7.78894
rtoes 3.92083
lfemur -25.6101 1.84658 -12.7056
ltibia 61.9828
lfoot -7.57392 -0.786373
ltoes -0.62806
103
root 0.110948 18.0445 -10.8644 -2.46042 -2.48342 -6.58514
lowerback 11.0284 0.177665 3.661
upperback 0.356688 0.867201 2.82178
thorax -5.8124 0.363975 0.760224
lowerneck -15.8165 -3.26465 -1.87707
upperneck 25.294 -3.86363 -0.936876
head 10.7766 -2.06408 -0.554745
rclavicle 1.90088e-015 -7.55382e-015
rhumerus -26.9655 -11.0743 -81.6143
rradius 30.0025
rwrist -0.692256
rhand -18.5369 24.1139
rfingers 7.12502
rthumb 7.75216 -5.72395
lclavicle 1.90088e-015 -7.55382e-015
lhumerus -33.4459 0.241292 85.6209
lradius 29.4987
lwrist 6.20284
lhand -32.0557 20.1398
lfingers 7.12502
lthumb -5.30252 50.0535
rfemur -5.82852 6.0899 33.9769
rtibia 29.3222
rfoot -16.7284 -7.86682
rtoes 4.01417
lfemur -26.1934 1.84482 -12.4924
ltibia 60.2739
lfoot -7.80433 -0.106231
ltoes 1.16103
